#!OML:ASF Y:\EmotionMaleHayes\Project 1\Capture day 1\Session 1\Male1.ASF
:FULLY-SPECIFIED
:DEGREES
1507
root 47.8431 16.4909 3.85824 1078.63 180.818 1069.42
lowerback 2.95162 -1.55543 -13.7449
upperback 1.03058 -2.73607 -1.94251
thorax -0.0538651 -1.51585 5.71609
lowerneck -22.3757 5.11173 6.57002
upperneck 20.424 5.89883 -3.36283
head 10.5495 2.87181 -1.3497
rclavicle 9.84605e-015 2.31584e-014
rhumerus -53.271 -9.95277 -71.913
rradius 29.2855
rwrist 8.37502
rhand -6.74777 -33.6007
rfingers 7.12502
rthumb 19.1134 -62.6816
lclavicle 9.84605e-015 2.31584e-014
lhumerus -21.9377 -21.3213 91.2421
lradius 36.7083
lwrist -4.09033
lhand -14.7154 -23.8592
lfingers 7.12502
lthumb 11.4393 5.80869
rfemur -19.7794 -5.6899 6.94442
rtibia 14.634
rfoot -2.76232 -2.03646
rtoes 22.0972
lfemur 25.1286 -2.46441 -36.3654
ltibia 10.0637
lfoot -9.91954 -12.7756
ltoes 14.4515
1508
root 47.8661 16.5083 3.71268 1078.56 180.762 1070.12
lowerback 3.05941 -1.66846 -13.2113
upperback 0.983849 -2.84704 -1.59615
thorax -0.14586 -1.54503 5.79451
lowerneck -22.3571 5.33743 6.80927
upperneck 20.397 6.17336 -3.52879
head 10.5658 2.99471 -1.40366
rclavicle 2.73484e-014 -2.03754e-014
rhumerus -52.6822 -9.56252 -71.9781
rradius 29.4782
rwrist 8.19542
rhand -6.98529 -33.7804
rfingers 7.12502
rthumb 18.885 -62.8837
lclavicle 2.73484e-014 -2.03754e-014
lhumerus -23.0834 -20.6873 91.4513
lradius 36.6548
lwrist -4.21489
lhand -14.6945 -23.8525
lfingers 7.12502
lthumb 11.4594 5.81434
rfemur -19.4894 -5.84567 7.93071
rtibia 15.1537
rfoot -3.04496 -2.06701
rtoes 19.8243
lfemur 25.1735 -2.89956 -35.6206
ltibia 11.1106
lfoot -9.31651 -12.6304
ltoes 15.3897
1509
root 47.8867 16.5356 3.56555 1078.59 180.741 1070.72
lowerback 3.07292 -1.79565 -12.7719
upperback 0.916074 -2.97168 -1.27626
thorax -0.202168 -1.58559 5.89267
lowerneck -22.3985 5.54341 7.06904
upperneck 20.4505 6.42188 -3.72368
head 10.6241 3.1039 -1.4737
rclavicle -1.53623e-014 -1.43125e-014
rhumerus -52.0315 -9.12285 -72.1004
rradius 29.6452
rwrist 7.88171
rhand -7.1129 -33.5889
rfingers 7.12502
rthumb 18.7622 -62.704
lclavicle -1.53623e-014 -1.43125e-014
lhumerus -23.2932 -18.0726 91.4458
lradius 35.0489
lwrist -6.1309
lhand -14.6001 -24.6304
lfingers 7.12502
lthumb 11.5504 5.0313
rfemur -18.9924 -5.27194 8.74756
rtibia 15.1575
rfoot -3.49701 -2.61732
rtoes 19.8051
lfemur 25.0143 -2.39989 -34.2361
ltibia 12.171
lfoot -7.99683 -13.5395
ltoes 16.2162
1510
root 47.8992 16.5572 3.41577 1078.47 180.609 1070.74
lowerback 3.12762 -1.64853 -12.6457
upperback 0.875209 -2.77192 -1.16596
thorax -0.314723 -1.47311 5.94057
lowerneck -22.3552 5.43834 6.85495
upperneck 20.4611 6.34573 -3.68927
head 10.6063 3.05864 -1.44006
rclavicle 5.59082e-017 2.28602e-014
rhumerus -51.6392 -9.16128 -71.8999
rradius 29.9848
rwrist 7.26782
rhand -7.29788 -33.5784
rfingers 7.12502
rthumb 18.5843 -62.7107
lclavicle 5.59082e-017 2.28602e-014
lhumerus -24.6338 -18.589 92.1042
lradius 34.9393
lwrist -5.33469
lhand -14.8187 -24.209
lfingers 7.12502
lthumb 11.3397 5.46438
rfemur -18.311 -4.87316 8.77086
rtibia 15.131
rfoot -3.58262 -2.57348
rtoes 22.5117
lfemur 24.9862 -3.35643 -35.1117
ltibia 13.5158
lfoot -8.37542 -11.9471
ltoes 10.1138
1511
root 47.9098 16.5784 3.26442 1078.33 180.463 1071.44
lowerback 3.15977 -1.51758 -11.6872
upperback 0.868822 -2.5392 -0.925874
thorax -0.413535 -1.33766 5.65919
lowerneck -22.378 5.33036 6.65534
upperneck 20.4555 6.26125 -3.69055
head 10.5961 3.00432 -1.42181
rclavicle 1.40392e-015 -1.17283e-014
rhumerus -51.2534 -9.36356 -71.6675
rradius 30.3413
rwrist 7.005
rhand -7.50066 -33.6959
rfingers 7.12502
rthumb 18.3892 -62.8467
lclavicle 1.40392e-015 -1.17283e-014
lhumerus -25.4454 -16.622 92.4255
lradius 34.2475
lwrist -7.07063
lhand -14.6006 -24.494
lfingers 7.12502
lthumb 11.55 5.16779
rfemur -17.7419 -5.43179 9.68751
rtibia 15.3771
rfoot -3.41502 -1.40961
rtoes 23.6442
lfemur 24.9466 -2.78919 -33.8247
ltibia 14.4843
lfoot -7.13679 -12.1807
ltoes 7.87524
